<svg width="24" height="33" viewBox="0 0 24 33" fill="none" xmlns="http://www.w3.org/2000/svg">
<path fill-rule="evenodd" clip-rule="evenodd" d="M3.27273 13.9999C1.80609 13.9999 1.5 14.2878 1.5 15.6666V18.1667C1.5 19.5456 1.80609 19.8333 3.27273 19.8333H6.81818V29.8334C6.81818 31.2122 7.12427 31.5 8.59091 31.5H12.1364C13.6031 31.5 13.9091 31.2122 13.9091 29.8334V19.8333H17.89C19.0024 19.8333 19.2891 19.63 19.5947 18.6246L20.3544 16.1245C20.8777 14.4021 20.5553 13.9999 18.6498 13.9999H13.9091V9.83334C13.9091 8.91287 14.7027 8.16666 15.6818 8.16666H20.7273C22.1938 8.16666 22.5 7.87889 22.5 6.5V3.16666C22.5 1.78777 22.1938 1.5 20.7273 1.5H15.6818C10.7865 1.5 6.81818 5.23097 6.81818 9.83334V13.9999H3.27273Z" stroke="black" stroke-width="3" stroke-linejoin="round"/>
</svg>
