<svg width="40" height="19" viewBox="0 0 40 19" fill="none" xmlns="http://www.w3.org/2000/svg">
<path d="M37.8013 4.40364C36.866 4.40414 35.9973 4.43364 35.1317 4.39414C34.6125 4.37044 34.4769 4.53924 34.4801 5.05594C34.5051 9.15324 34.5 13.2508 34.5028 17.3483C34.5035 18.3917 34.5013 18.3917 33.4534 18.3903C32.4262 18.3889 31.3977 18.3555 30.3724 18.3983C29.7723 18.4233 29.5854 18.2308 29.5887 17.6234C29.6118 13.4574 29.6012 9.29114 29.6014 5.12494C29.6014 4.92124 29.6014 4.71744 29.6014 4.39724C28.6123 4.39724 27.6641 4.39644 26.7158 4.39734C24.9406 4.39914 24.9395 4.39954 24.9332 2.60974C24.9303 1.78854 24.9327 0.967341 24.9327 0.074941C25.2299 0.058841 25.4723 0.0343401 25.7147 0.0342401C29.9602 0.0328401 34.2059 0.0473413 38.4513 0.0217413C39.1136 0.0177413 39.3351 0.21794 39.2987 0.87914C39.2485 1.79204 39.2375 2.71304 39.2996 3.62434C39.3451 4.29314 39.087 4.48244 38.485 4.40804C38.2826 4.38304 38.0746 4.40374 37.8013 4.40364Z" fill="black"/>
<path d="M14.7963 0.0133389C17.2831 0.0144389 19.7014 0.0275373 22.1196 0.0072373C22.6691 0.0026373 22.9137 0.150638 22.862 0.743438C22.8145 1.28824 22.836 1.84174 22.8637 2.38954C22.8866 2.84194 22.6972 2.99814 22.2621 2.99214C20.8252 2.97244 19.3876 2.99304 17.9511 2.96084C16.8489 2.93614 16.2031 3.10284 16.1416 4.34764C16.1342 4.49684 15.8346 4.75224 15.6678 4.75444C13.3184 4.78464 10.9685 4.77644 8.6187 4.78604C8.22751 4.78764 8.12975 4.59014 8.09802 4.23404C8.01848 3.34104 7.68642 3.01584 6.78941 2.99974C5.28417 2.97274 3.77763 2.96234 2.27279 2.99634C1.65924 3.01014 1.4607 2.79374 1.51377 2.19954C1.55838 1.70034 1.55859 1.19014 1.51101 0.691338C1.45784 0.134038 1.66842 -0.00266103 2.20308 3.89701e-05C6.37791 0.020739 10.5529 0.0125389 14.7963 0.0133389Z" fill="black"/>
<path d="M16.2876 9.61184C16.2876 11.1389 16.2876 11.1411 14.8112 11.143C12.7842 11.1455 10.757 11.1307 8.73019 11.1538C8.2207 11.1596 8.05476 10.9972 8.07633 10.4839C8.11369 9.59484 8.09903 8.70234 8.07221 7.81224C8.05977 7.39944 8.19588 7.24824 8.6141 7.24614C10.9131 7.23464 13.212 7.20674 15.5108 7.17314C16.0687 7.16504 16.352 7.35044 16.2963 7.96864C16.2494 8.48974 16.2872 9.01844 16.2876 9.61184Z" fill="black"/>
<path d="M0.185947 12.2386C0.100034 11.4073 0.0490634 10.5956 0.0501734 9.78394C0.0503074 9.68464 0.326815 9.50554 0.480074 9.50004C1.29925 9.47094 2.12009 9.49354 2.94007 9.48074C3.29861 9.47514 3.41371 9.63414 3.41169 9.97794C3.40098 11.8057 3.39542 13.6337 3.40938 15.4614C3.41285 15.9159 3.22667 16.0856 2.79587 16.0502C2.63749 16.0372 2.47507 16.0327 2.31797 16.0524C1.81949 16.1147 1.6361 15.933 1.65217 15.4046C1.68962 14.1733 1.66411 12.94 1.62827 11.6684C1.43466 12.5806 0.71366 12.1096 0.185947 12.2386Z" fill="black"/>
<path d="M22.7464 11.4069C22.7407 12.7609 22.702 14.0635 22.7483 15.3631C22.7762 16.1486 22.2877 16.021 21.811 16.0582C21.2632 16.1008 21.055 15.935 21.0596 15.3445C21.0732 13.6115 21.0241 11.8779 20.9968 10.1446C20.9902 9.72184 21.0961 9.44984 21.6115 9.47254C22.3386 9.50464 23.0695 9.50504 23.7963 9.46874C24.2948 9.44384 24.4333 9.65104 24.4035 10.1104C24.3754 10.5422 24.4078 10.9777 24.4004 11.4113C24.3938 11.7991 24.5401 12.2691 23.8431 12.2316C23.3117 12.2029 22.7362 12.3296 22.8687 11.475C22.8777 11.4171 22.8346 11.351 22.8158 11.2888C22.7936 11.3106 22.7713 11.3324 22.7464 11.4069Z" fill="black"/>
<path d="M17.7067 13.4612C17.7062 12.3008 17.7188 11.2086 17.6991 10.1169C17.6908 9.65764 17.8377 9.45774 18.3251 9.46844C20.1993 9.50954 19.8274 9.24244 19.8497 10.9553C19.8688 12.4151 19.8457 13.8756 19.877 15.3351C19.8883 15.8627 19.7244 16.0708 19.1791 16.0567C17.4779 16.0128 17.711 16.2428 17.7048 14.6247C17.7034 14.2597 17.706 13.8947 17.7067 13.4612Z" fill="black"/>
<path d="M6.58629 12.0874C6.58781 13.2518 6.57709 14.3478 6.5968 15.4432C6.60475 15.8845 6.44062 16.0589 5.99757 16.0486C4.36941 16.0109 4.5641 16.2579 4.5637 14.6501C4.56333 13.2119 4.58334 11.773 4.54162 10.3359C4.52335 9.70674 4.66861 9.42694 5.36381 9.45874C6.8132 9.52504 6.54971 9.31064 6.5838 10.7176C6.59431 11.1511 6.58598 11.585 6.58629 12.0874Z" fill="black"/>
<path d="M3.40899 5.77634C3.41018 6.48404 3.39705 7.12464 3.41277 7.76454C3.42158 8.12334 3.27425 8.24914 2.92611 8.24244C2.12824 8.22714 1.32961 8.22274 0.53189 8.24074C0.153336 8.24934 -0.0244913 8.12084 0.0136967 7.72834C0.0291297 7.56974 0.0356887 7.40574 0.0133197 7.24884C-0.0638753 6.70754 0.198939 6.56054 0.68561 6.61554C0.92935 6.64304 1.17874 6.62034 1.55155 6.62034C1.55155 6.06964 1.58507 5.57774 1.54279 5.09244C1.49343 4.52584 1.62988 4.24964 2.2734 4.27504C3.66106 4.32984 3.3893 4.20444 3.40899 5.77634Z" fill="black"/>
<path d="M20.9821 6.18304C20.9815 5.93244 20.981 5.74994 20.9802 5.56744C20.9742 4.18944 20.9736 4.20054 22.3223 4.27224C22.6939 4.29204 22.866 4.41964 22.854 4.80104C22.8405 5.23404 22.8698 5.66894 22.8449 6.10094C22.8187 6.55284 22.948 6.75404 23.452 6.74544C24.4365 6.72864 24.5276 6.84984 24.3749 7.84034C24.3517 7.99084 24.1198 8.21744 23.9767 8.22344C23.1139 8.25914 22.248 8.25914 21.3852 8.22194C21.2467 8.21604 21.018 7.97304 21.0041 7.82344C20.9556 7.30324 20.9833 6.77584 20.9821 6.18304Z" fill="black"/>
<path d="M17.7113 7.90684C17.7054 6.88644 17.7179 5.92804 17.6947 4.97044C17.6832 4.49704 17.8013 4.26344 18.3398 4.27204C20.1559 4.30104 19.8068 4.12054 19.8496 5.74204C19.867 6.40314 19.8387 7.06554 19.8604 7.72644C19.8731 8.11354 19.7248 8.26224 19.3435 8.24224C18.9579 8.22194 18.5678 8.26384 18.185 8.22564C18.0215 8.20934 17.8713 8.05874 17.7113 7.90684Z" fill="black"/>
<path d="M4.5524 7.39694C4.55193 6.53044 4.56736 5.72934 4.54497 4.92924C4.53224 4.47454 4.66696 4.27694 5.16237 4.26864C6.57695 4.24514 6.57843 4.22484 6.58641 5.65864C6.59035 6.36774 6.61176 7.07864 6.56632 7.78484C6.55593 7.94634 6.3155 8.20574 6.15823 8.22404C5.66619 8.28144 5.16329 8.24514 4.59286 8.24514C4.57756 7.94874 4.56501 7.70574 4.5524 7.39694Z" fill="black"/>
</svg>
