<svg width="103" height="50" viewBox="0 0 103 50" fill="none" xmlns="http://www.w3.org/2000/svg">
<path d="M74.7373 34.5088C74.7376 36.2004 74.7376 37.8239 74.7376 39.4991C73.2944 39.4991 71.8735 39.4991 70.4115 39.4991C70.4115 35.7504 70.4115 32.0298 70.4115 28.2141C70.6534 28.2141 70.8943 28.2141 71.1352 28.2141C74.2161 28.2137 77.2971 28.2181 80.3781 28.2099C81.2131 28.2076 81.6081 27.8462 81.6493 27.107C81.6962 26.2671 81.2769 25.8447 80.3355 25.8428C77.2774 25.8369 74.2192 25.8454 71.161 25.8482C70.9171 25.8485 70.6732 25.8483 70.3988 25.8483C70.3988 24.34 70.3988 22.905 70.3988 21.4415C70.4734 21.4186 70.5564 21.3705 70.6393 21.3708C73.9253 21.3818 77.2114 21.394 80.4975 21.4161C80.9071 21.4189 81.3205 21.4496 81.7251 21.513C84.952 22.018 86.6198 24.4553 86.0542 27.7851C85.719 29.7583 84.6165 31.0997 82.8104 31.893C82.6042 31.9835 82.3954 32.068 82.1032 32.191C83.6288 34.6377 85.1308 37.0465 86.6908 39.5483C85.4661 39.5483 84.3024 39.4277 83.1747 39.5779C81.6674 39.7788 80.8239 39.2129 80.1602 37.8744C79.3302 36.2005 78.268 34.6434 77.3334 33.0201C77.1025 32.6191 76.8575 32.4317 76.3704 32.4571C74.8546 32.5362 74.6948 32.0886 74.735 34.0973C74.7373 34.2118 74.7364 34.3263 74.7373 34.5088Z" fill="black"/>
<path d="M57.2803 21.3881C57.8881 21.297 57.8505 21.6645 57.8503 22.0218C57.8479 25.8887 57.8492 29.7557 57.8504 33.6227C57.8505 33.8743 57.8564 34.1259 57.8641 34.3774C57.8813 34.9386 58.1687 35.201 58.7314 35.1994C60.2828 35.195 61.8344 35.1945 63.3858 35.2118C63.8798 35.2173 64.095 34.9732 64.1322 34.5192C64.149 34.3146 64.1424 34.1078 64.1418 33.902C64.1312 29.9664 64.12 26.0309 64.109 22.0953C64.1084 21.8726 64.1089 21.6499 64.1089 21.3927C65.6299 21.3927 67.0796 21.3927 68.565 21.3927C68.5781 21.5861 68.6006 21.7643 68.6005 21.9424C68.5984 26.1526 68.5989 30.3628 68.5841 34.5729C68.582 35.1657 68.5304 35.7618 68.4542 36.3502C68.187 38.4138 67.2549 39.4735 65.1884 39.5421C62.3005 39.6381 59.3999 39.5806 56.5141 39.4192C54.6696 39.3161 53.816 38.3587 53.4992 36.5181C53.3909 35.8894 53.3205 35.2456 53.3182 34.6084C53.3028 30.2391 53.3102 25.8698 53.3102 21.3882C54.5914 21.3882 55.9045 21.3882 57.2803 21.3881Z" fill="black"/>
<path d="M98.036 25.5769C98.036 24.1596 98.036 22.8109 98.036 21.413C99.508 21.413 100.955 21.413 102.454 21.413C102.469 21.6098 102.498 21.8067 102.498 22.0036C102.498 26.213 102.508 30.4226 102.484 34.6319C102.479 35.4279 102.396 36.2341 102.248 37.0163C101.988 38.3891 101.177 39.3572 99.748 39.44C97.226 39.5861 94.695 39.6101 92.168 39.6416C91.443 39.6506 90.709 39.5525 89.9928 39.4282C88.5023 39.1697 87.723 38.4193 87.4821 36.9299C87.3295 35.9864 87.2644 35.02 87.2569 34.063C87.2244 29.8996 87.2273 25.7359 87.2188 21.5723C87.2188 21.5289 87.2383 21.4855 87.2598 21.3954C88.7159 21.3954 90.183 21.3954 91.712 21.3954C91.712 21.6521 91.712 21.8746 91.712 22.0971C91.712 26.032 91.711 29.967 91.713 33.9019C91.713 35.1544 91.773 35.2114 93.02 35.211C94.388 35.2105 95.757 35.2136 97.126 35.207C97.933 35.2032 98.043 35.1026 98.044 34.2933C98.048 31.4107 98.04 28.5282 98.036 25.5769Z" fill="black"/>
<path d="M32.6098 23.3036C34.6888 20.0429 37.5961 18.2148 41.4034 17.903C43.8865 17.6996 46.2873 18.0484 48.4705 19.3257C49.2658 19.7909 49.9703 20.4121 50.7954 21.0204C49.6233 22.277 48.5554 23.4218 47.437 24.6207C45.7385 23.0149 43.7594 22.3254 41.4759 22.5458C40.2087 22.6681 39.094 23.1458 38.1353 23.9765C36.0825 25.755 35.4049 29.0881 36.5783 31.735C37.3185 33.4047 38.5321 34.5927 40.2986 35.1406C42.0075 35.6706 43.7222 35.4776 45.4891 35.0516C45.4891 36.6861 45.4891 38.2529 45.4891 39.8264C42.0839 41.1699 36.5155 39.5979 33.7981 36.5156C30.7486 33.0566 30.2479 27.6342 32.6098 23.3036Z" fill="black"/>
<path d="M42.8496 49.9974C42.6477 50 42.5016 50 42.1842 50C42.4308 49.8425 42.5291 49.7608 42.6414 49.7108C45.442 48.4647 47.0801 46.2535 47.2552 43.255C47.4597 39.7524 47.303 36.2285 47.303 32.653C45.2994 32.653 43.2797 32.653 41.2093 32.653C41.2093 31.2367 41.2093 29.8798 41.2093 28.4817C44.6039 28.4817 48.0135 28.4817 51.5039 28.4817C51.5039 29.1362 51.5042 29.7904 51.5039 30.4445C51.5024 33.6007 51.4462 36.758 51.5114 39.9128C51.6196 45.1473 48.348 49.3393 42.8496 49.9974Z" fill="black"/>
<path d="M42.3568 7.63364C40.3458 4.66784 41.7063 0.812046 44.9652 0.11459C47.2256 -0.369167 49.3101 0.707986 50.1492 2.79345C51.0074 4.92627 50.2525 7.58827 48.466 8.72951C46.5466 9.9556 44.1576 9.6115 42.567 7.87934C42.5052 7.81203 42.4476 7.74087 42.3568 7.63364Z" fill="black"/>
<path d="M41.0378 45.6067C41.0378 45.6067 40.996 45.6423 40.9143 45.6387C40.6197 45.7062 40.4055 45.7734 40.1944 45.8491C38.4485 46.4747 36.7233 47.1684 34.9509 47.7057C33.7233 48.0778 32.4372 48.2748 31.1658 48.4782C29.4718 48.7493 27.767 48.9537 26.0649 49.1705C25.9996 49.1788 25.9131 49.0184 25.8364 48.9367C26.424 48.7203 27.0115 48.504 27.6951 48.2689C29.3801 47.9033 30.7818 47.1444 32.1275 46.2635C32.1409 46.2547 32.1377 46.2205 32.1423 46.1981C32.1423 46.1981 32.1726 46.1611 32.2489 46.1627C32.9359 45.7405 33.5465 45.3167 34.1571 44.8929C34.1571 44.8929 34.1764 44.927 34.2135 44.9225C34.5985 44.6091 34.9466 44.3002 35.2946 43.9914C35.2946 43.9914 35.2914 43.9821 35.3375 43.9801C35.4345 43.9195 35.4855 43.8609 35.5365 43.8022C35.5365 43.8022 35.5415 43.8192 35.5804 43.8119C35.8295 43.5896 36.0398 43.3746 36.25 43.1596C36.25 43.1596 36.2484 43.1576 36.2923 43.1536C36.4005 43.0652 36.4649 42.9808 36.5292 42.8964C36.5292 42.8964 36.5261 42.8858 36.5732 42.8818C36.6631 42.8145 36.706 42.7512 36.7488 42.6879C36.7488 42.6879 36.7571 42.7039 36.7953 42.7012C36.9139 42.5797 36.9943 42.4609 37.0747 42.3422C37.0747 42.3422 37.0705 42.334 37.1169 42.3302C37.201 42.2618 37.2388 42.1972 37.2765 42.1326C37.2894 42.1552 37.3023 42.1778 37.3407 42.1681C37.4034 42.0632 37.4406 41.9905 37.4778 41.9178C37.4778 41.9178 37.481 41.9215 37.5282 41.9131C37.8859 41.8648 38.2094 41.7483 38.5043 41.7991C39.5246 41.9746 40.5166 42.3835 41.5814 42.1072C41.7313 42.107 41.8812 42.1069 42.1073 42.1691C42.9845 42.2151 43.7862 42.1749 44.586 42.1983C44.7992 42.2045 45.0067 42.4056 45.2168 42.5172C45.2168 42.5172 45.1984 42.4957 45.1543 42.5077C44.9933 42.6946 44.8763 42.8696 44.7594 43.0445C44.7594 43.0445 44.7465 43.0266 44.7106 43.0314C44.6003 43.1469 44.5257 43.2576 44.4512 43.3684C44.4512 43.3684 44.4353 43.408 44.3702 43.4162C44.1923 43.5356 44.0795 43.647 43.9666 43.7583C43.9666 43.7583 43.9567 43.7617 43.9128 43.7582C43.7214 43.8978 43.5738 44.0409 43.4262 44.1839C43.4262 44.1839 43.3914 44.1881 43.3686 44.1804C43.3157 44.2131 43.2857 44.2533 43.2557 44.2936C43.2557 44.2936 43.2541 44.2797 43.2106 44.2775C42.9186 44.4593 42.6701 44.6433 42.4216 44.8274C42.4216 44.8274 42.4195 44.8143 42.3736 44.817C41.8977 45.082 41.4678 45.3443 41.0378 45.6067Z" fill="black"/>
<path d="M71.4344 8.99778C73.7535 9.43961 75.9703 10.0227 78.1101 10.8714C69.6045 9.04977 61.0355 8.78726 52.4094 9.65348C58.6927 8.2271 65.0077 7.80652 71.4344 8.99778Z" fill="black"/>
<path d="M82.5938 46.3872C82.4046 46.4128 82.2678 46.4217 82.1316 46.4152C82.0682 46.4122 82.0063 46.3793 81.8788 46.34C81.8788 45.3865 81.8788 44.4217 81.8788 43.259C81.387 44.0284 81.0049 44.6263 80.5381 45.3565C80.1286 44.6955 79.7933 44.1544 79.4581 43.6134C79.4116 43.6246 79.365 43.6358 79.3185 43.6471C79.3185 44.5602 79.3185 45.4733 79.3185 46.4124C79.0092 46.4124 78.7869 46.4124 78.5153 46.4124C78.5153 44.8823 78.5153 43.3608 78.5153 41.8061C78.9915 41.5898 79.3145 41.7644 79.5668 42.2534C79.8589 42.8196 80.2068 43.3568 80.5807 43.9922C80.9054 43.4286 81.2347 42.9407 81.4771 42.4126C81.7203 41.8828 82.0372 41.614 82.6465 41.8235C82.6465 43.3253 82.6465 44.8447 82.5938 46.3872Z" fill="black"/>
<path d="M41.5994 9.29603C41.0354 9.12073 40.4478 8.90351 39.8572 8.69432C37.233 7.76464 34.5422 7.15328 31.754 7.03518C30.2782 6.97267 28.7995 6.87679 27.3247 6.91098C24.6728 6.97245 22.0237 7.12234 19.4407 7.82154C17.1443 8.44319 14.8447 9.05316 12.5482 9.6747C12.4265 9.70762 12.321 9.80029 12.2231 10.015C12.3993 10.015 12.5844 10.0507 12.7506 10.0097C15.9714 9.21512 19.2493 9.04616 22.5476 9.10059C22.6732 9.10266 22.7976 9.17316 22.9425 9.25971C20.5757 9.41905 18.1724 9.39439 15.8071 9.68276C13.7268 9.93637 11.6891 10.5407 9.63229 10.989C9.39349 11.041 9.15319 11.0858 8.85519 11.0192C9.21639 10.8541 9.57379 10.68 9.93939 10.5252C17.2091 7.44675 24.758 6.09809 32.6401 6.89903C35.7362 7.21364 38.7722 7.80224 41.5994 9.29603ZM11.3357 10.1285C11.2899 10.1826 11.2441 10.2367 11.1983 10.2908C11.2801 10.2946 11.362 10.2983 11.4439 10.302C11.4322 10.2365 11.4204 10.1709 11.3357 10.1285ZM10.7529 10.4282C10.764 10.4089 10.7751 10.3895 10.7862 10.3702C10.768 10.3785 10.7498 10.3868 10.7529 10.4282Z" fill="black"/>
<path d="M51.8329 19.0692C52.3335 19.3043 52.8004 19.128 53.2871 18.8936C56.5354 17.3289 59.9135 16.0984 63.4335 15.3503C65.9084 14.8244 68.4322 14.513 70.9449 14.1898C72.3819 14.005 73.8405 13.9894 75.2892 13.8942C75.3909 13.8876 75.4908 13.8527 75.7902 13.788C75.515 13.6941 75.426 13.6392 75.3354 13.6364C73.6757 13.586 72.0157 13.504 70.3558 13.5061C68.3765 13.5085 66.3973 13.5859 64.418 13.626C64.1918 13.6306 63.9649 13.6042 63.6922 13.5604C68.8625 13.33 74.0797 13.0993 79.272 13.9042C79.3528 13.9167 79.433 13.9338 79.4945 13.8098C75.9843 14.0575 72.4626 14.198 68.9666 14.5774C63.3976 15.1818 58.0816 16.7575 53.0367 19.2175C52.6071 19.4269 52.2055 19.6257 51.8329 19.0692Z" fill="black"/>
<path d="M58.9086 44.2814C59.0801 44.136 59.2429 43.9885 59.4214 43.9659C59.7555 43.9236 60.0987 43.9537 60.5225 43.9537C60.5225 44.3563 60.5225 44.7372 60.5225 45.118C60.5225 45.4823 60.5225 45.8466 60.5225 46.1984C59.2469 46.7844 57.7374 46.5854 57.019 45.7524C56.3638 44.9928 56.3128 43.6038 56.9081 42.7381C57.5333 41.8291 58.9628 41.4891 60.3202 41.9244C60.3202 42.1881 60.3202 42.4498 60.3202 42.6504C59.7354 42.6163 59.1873 42.501 58.6642 42.5716C57.6353 42.7104 57.1284 43.555 57.3625 44.5862C57.5588 45.4512 58.5878 46.0577 59.456 45.7179C59.6726 45.6331 59.7276 45.1334 59.8114 44.9328C59.4994 44.4978 58.8794 45.0276 58.9086 44.2814Z" fill="black"/>
<path d="M68.9054 44.983C68.6452 44.348 68.4037 43.766 68.1203 43.2052C67.8847 42.7389 67.5998 42.2977 67.3127 41.8041C67.8286 41.6087 68.212 41.6541 68.4835 42.1937C68.7359 42.6955 69.0402 43.171 69.3604 43.7253C69.6737 43.2155 69.9999 42.7775 70.2256 42.2924C70.4771 41.7518 70.8434 41.6288 71.4209 41.8047C70.6886 43.2707 69.261 44.476 69.811 46.4115C69.4485 46.4115 69.2123 46.4115 68.906 46.4115C68.906 45.9526 68.906 45.4988 68.9054 44.983Z" fill="black"/>
<path d="M25.7985 48.9187C25.9131 49.0184 25.9996 49.1788 26.0649 49.1705C27.767 48.9537 29.4718 48.7493 31.1658 48.4782C32.4372 48.2748 33.7233 48.0778 34.9509 47.7057C36.7233 47.1684 38.4485 46.4747 40.1944 45.8491C40.4055 45.7734 40.6198 45.7062 40.8869 45.6397C38.7472 46.8587 36.3866 47.634 33.9435 48.0951C31.3021 48.5937 28.6329 48.9468 25.9711 49.3307C25.5078 49.3975 25.0213 49.2916 24.5455 49.2906C24.4444 49.2904 24.3432 49.4 24.2339 49.4064C24.7428 49.2378 25.2517 49.0692 25.7985 48.9187Z" fill="black"/>
<path d="M23.2998 9.34298C24.0076 9.34004 24.7915 9.24598 25.5306 9.38719C27.5334 9.76979 29.5473 10.1511 31.4971 10.734C32.6221 11.0703 33.6312 11.796 34.6981 12.3954C31.2154 10.3267 27.3461 9.61861 23.2998 9.34298Z" fill="black"/>
<path d="M11.6607 14.7985C12.2922 14.6754 12.9829 14.4845 13.6775 14.4686C15.6082 14.4246 17.5409 14.4308 19.4721 14.4639C20.3007 14.4781 21.1274 14.6078 21.9787 14.7292C18.9836 14.7613 15.9648 14.7462 12.946 14.7405C12.5379 14.7398 12.1297 14.7861 11.6607 14.7985Z" fill="black"/>
<path d="M54.2566 13.8008C53.0541 13.7806 51.7893 13.7795 50.5297 13.6969C49.6984 13.6424 48.8571 13.5405 48.0517 13.3356C46.7357 13.0007 45.441 12.5723 44.5181 11.4194C46.8023 13.3425 49.6423 13.4322 52.4222 13.713C53.0101 13.7723 53.6049 13.7629 54.2566 13.8008Z" fill="black"/>
<path d="M44.7959 15.9497C45.4255 16.0246 46.128 16.0355 46.7756 16.23C48.4786 16.7417 50.0828 17.4834 51.4926 18.5964C51.6137 18.692 51.7064 18.8237 51.8154 18.9873C49.7285 17.4764 47.4331 16.3866 44.7959 15.9497Z" fill="black"/>
<path d="M63.0292 13.5353C62.9901 13.6188 62.8897 13.75 62.7863 13.7525C60.7316 13.8011 58.6765 13.8349 56.5746 13.8419C58.674 13.7156 60.8203 13.6193 63.0292 13.5353Z" fill="black"/>
<path d="M32.0938 46.2046C32.1377 46.2205 32.1409 46.2547 32.1275 46.2635C30.7818 47.1444 29.3801 47.9033 27.7382 48.2514C29.1386 47.5721 30.592 46.8916 32.0938 46.2046Z" fill="black"/>
<path d="M40.9712 15.8834C40.9531 15.8203 40.9952 15.725 41.0376 15.7249C42.1673 15.7209 43.3039 15.4316 44.4448 15.8444C43.3203 15.8918 42.1759 15.8937 40.9712 15.8834Z" fill="black"/>
<path d="M41.5272 42.0906C40.5166 42.3835 39.5246 41.9746 38.5043 41.7991C38.2094 41.7483 37.8859 41.8648 37.5264 41.9116C37.6461 41.5141 37.908 41.45 38.3419 41.5422C39.3765 41.7622 40.4281 41.9019 41.5272 42.0906Z" fill="black"/>
<path d="M45.2553 42.4933C45.0067 42.4056 44.7992 42.2045 44.586 42.1983C43.7862 42.1749 42.9845 42.2151 42.1611 42.1862C43.2564 42.0905 44.3742 42.0401 45.5695 41.9861C45.4605 42.1773 45.3772 42.3234 45.2553 42.4933Z" fill="black"/>
<path d="M36.359 13.7184C37.3131 14.0249 37.8824 14.8009 38.4035 15.683C37.7326 15.0742 37.0561 14.4162 36.359 13.7184Z" fill="black"/>
<path d="M20.5726 12.418C19.568 12.4539 18.5086 12.4741 17.4028 12.4632C18.4102 12.4222 19.464 12.4122 20.5726 12.418Z" fill="black"/>
<path d="M43.6641 10.6591C43.0013 10.2738 42.3177 9.84867 41.6248 9.37566C42.2914 9.75831 42.9673 10.1889 43.6641 10.6591Z" fill="black"/>
<path d="M38.4102 15.7611C39.1069 15.7658 39.8189 15.8128 40.5749 15.8892C40.2253 15.9939 39.8163 16.0252 39.4417 16.1556C38.9805 16.3163 38.6704 16.1936 38.4102 15.7611Z" fill="black"/>
<path d="M34.1106 44.9048C33.5465 45.3167 32.9359 45.7405 32.2728 46.161C32.8349 45.7441 33.4495 45.3304 34.1106 44.9048Z" fill="black"/>
<path d="M34.7216 12.4779C35.2447 12.8211 35.7918 13.2019 36.3413 13.6318C35.811 13.2924 35.2782 12.904 34.7216 12.4779Z" fill="black"/>
<path d="M41.086 45.6027C41.4677 45.3443 41.8977 45.082 42.379 44.8206C41.9984 45.0807 41.5663 45.3397 41.086 45.6027Z" fill="black"/>
<path d="M35.2506 44.0057C34.9467 44.3002 34.5986 44.6091 34.2009 44.9075C34.503 44.6047 34.8548 44.3124 35.2506 44.0057Z" fill="black"/>
<path d="M42.4688 44.8217C42.6701 44.6433 42.9186 44.4593 43.2169 44.2805C43.0165 44.4625 42.7663 44.6393 42.4688 44.8217Z" fill="black"/>
<path d="M36.2074 43.1742C36.0398 43.3746 35.8295 43.5896 35.5717 43.8106C35.7376 43.6074 35.9512 43.3981 36.2074 43.1742Z" fill="black"/>
<path d="M44.352 11.2112C44.1917 11.14 44.0125 11.0293 43.8357 10.8682C44.0031 10.9358 44.1681 11.0537 44.352 11.2112Z" fill="black"/>
<path d="M44.8012 43.0293C44.8764 42.8696 44.9933 42.6946 45.1597 42.5208C45.0871 42.686 44.9651 42.85 44.8012 43.0293Z" fill="black"/>
<path d="M44.006 43.7487C44.0795 43.647 44.1924 43.5356 44.3494 43.4199C44.2774 43.5233 44.1613 43.6312 44.006 43.7487Z" fill="black"/>
<path d="M43.4676 44.1691C43.5738 44.0409 43.7213 43.8978 43.9162 43.7542C43.812 43.8873 43.6606 44.0207 43.4676 44.1691Z" fill="black"/>
<path d="M37.0352 42.3563C36.9944 42.4609 36.914 42.5797 36.7869 42.6984C36.8253 42.589 36.9104 42.4797 37.0352 42.3563Z" fill="black"/>
<path d="M44.4869 43.3532C44.5257 43.2576 44.6002 43.1469 44.7195 43.0379C44.6837 43.1391 44.6032 43.2385 44.4869 43.3532Z" fill="black"/>
<path d="M36.491 42.908C36.4649 42.9808 36.4006 43.0652 36.2934 43.1544C36.3179 43.0794 36.3853 42.9995 36.491 42.908Z" fill="black"/>
<path d="M36.7125 42.7003C36.706 42.7512 36.6631 42.8145 36.5782 42.8841C36.5829 42.831 36.6295 42.7718 36.7125 42.7003Z" fill="black"/>
<path d="M32.5598 15.7567C32.499 15.7694 32.4163 15.7472 32.3222 15.6805C32.3865 15.6646 32.4622 15.6932 32.5598 15.7567Z" fill="black"/>
<path d="M37.442 41.9313C37.4407 41.9905 37.4035 42.0632 37.3224 42.134C37.3211 42.0696 37.3636 42.0072 37.442 41.9313Z" fill="black"/>
<path d="M35.4977 43.8108C35.4856 43.8609 35.4346 43.9195 35.3418 43.9826C35.3529 43.9311 35.4059 43.8752 35.4977 43.8108Z" fill="black"/>
<path d="M37.2425 42.1476C37.2388 42.1972 37.201 42.2618 37.121 42.3323C37.1219 42.2797 37.1652 42.2212 37.2425 42.1476Z" fill="black"/>
<path d="M34.5375 17.1304C34.5349 17.1301 34.54 17.1308 34.5375 17.1304V17.1304Z" fill="black"/>
<path d="M43.2917 44.2876C43.2858 44.2534 43.3158 44.2131 43.3856 44.1763C43.3928 44.2138 43.3602 44.2476 43.2917 44.2876Z" fill="black"/>
<path d="M43.8208 10.7867C43.7894 10.804 43.7422 10.7893 43.6871 10.7355C43.7212 10.7158 43.7632 10.7353 43.8208 10.7867Z" fill="black"/>
<path d="M44.5051 11.34C44.4735 11.3562 44.4266 11.3397 44.3714 11.2842C44.4052 11.266 44.4476 11.2866 44.5051 11.34Z" fill="black"/>
<path d="M11.3722 10.1169C11.4205 10.1709 11.4322 10.2365 11.4439 10.302C11.362 10.2983 11.2801 10.2946 11.1983 10.2908C11.2441 10.2367 11.29 10.1826 11.3722 10.1169Z" fill="black"/>
<path d="M10.7422 10.4117C10.7498 10.3868 10.768 10.3785 10.7862 10.3702C10.7751 10.3895 10.764 10.4089 10.7422 10.4117Z" fill="black"/>
<path d="M63.5919 13.6438C63.7399 13.6312 63.8878 13.6186 64.137 13.6472C64.4649 13.7004 64.6918 13.7268 64.918 13.7222C66.8973 13.6821 68.8765 13.6047 70.8558 13.6023C72.5157 13.6002 74.1757 13.6822 75.8354 13.7326C75.926 13.7354 76.015 13.7903 76.2902 13.8842C75.9908 13.9489 75.8909 13.9838 75.7892 13.9904C74.3405 14.0856 72.8819 14.1012 71.4449 14.286C68.9322 14.6092 66.4084 14.9206 63.9335 15.4465C60.4135 16.1946 57.0354 17.4251 53.7871 18.9898C53.3004 19.2242 52.8335 19.4005 52.3123 19.1241C52.3123 19.1241 52.3366 19.1116 52.3245 19.0732C52.2064 18.9199 52.1137 18.7882 51.9926 18.6926C50.5828 17.5796 48.9786 16.8379 47.2756 16.3262C46.628 16.1317 45.9256 16.1208 45.2482 16.0263C45.1833 16.0265 45.1185 16.0267 44.9893 15.9609C43.8039 15.5278 42.6673 15.8171 41.5376 15.8211C41.4952 15.8212 41.4531 15.9165 41.4108 15.9675C41.3471 15.987 41.2833 16.0066 41.1253 15.9911C40.3189 15.909 39.6069 15.862 38.8949 15.815C38.8949 15.815 38.9129 15.8102 38.9055 15.77C38.3824 14.8971 37.8132 14.1211 36.8384 13.7747C36.8384 13.7747 36.8592 13.7318 36.849 13.7054C36.2918 13.2981 35.7448 12.9173 35.1978 12.5365C35.1978 12.5365 35.2236 12.5047 35.2081 12.4736C34.1313 11.8922 33.1221 11.1665 31.9971 10.8302C30.0473 10.2473 28.0334 9.86598 26.0306 9.48338C25.2915 9.34217 24.5076 9.43622 23.7442 9.42298C23.6807 9.42648 23.6172 9.42998 23.4882 9.37072C23.2976 9.26935 23.1732 9.19885 23.0476 9.19678C19.7493 9.14235 16.4714 9.31131 13.2506 10.1059C13.0844 10.1469 12.8993 10.1112 12.7231 10.1112C12.821 9.89648 12.9265 9.80381 13.0482 9.77089C15.3447 9.14935 17.6443 8.53938 19.9407 7.91773C22.5237 7.21853 25.1728 7.06864 27.8247 7.00717C29.2995 6.97298 30.7782 7.06886 32.254 7.13137C35.0422 7.24947 37.733 7.86083 40.3572 8.79051C40.9478 8.9997 41.5354 9.21692 42.1244 9.43044C42.1244 9.43044 42.109 9.44233 42.1215 9.48106C42.8177 9.94486 43.5013 10.37 44.185 10.795C44.185 10.795 44.1661 10.8309 44.1806 10.8509C44.2422 10.8855 44.2894 10.9002 44.3365 10.9149C44.3365 10.9149 44.3167 10.9558 44.325 10.9853C44.5125 11.1255 44.6917 11.2362 44.871 11.3469C44.871 11.3469 44.8523 11.3662 44.8661 11.3928C44.9266 11.4359 44.9735 11.4524 45.0203 11.4689C45.0203 11.4689 44.9647 11.485 44.9905 11.525C45.9411 12.6685 47.2357 13.0969 48.5517 13.4318C49.3571 13.6367 50.1984 13.7386 51.0297 13.7931C52.2893 13.8757 53.5541 13.8768 54.8167 13.9125C55.5112 13.9043 56.2056 13.8961 57.0108 13.9279C59.1765 13.9311 61.2316 13.8973 63.2863 13.8487C63.3897 13.8462 63.4901 13.715 63.5919 13.6438Z" fill="black"/>
<path d="M21.1274 12.53C21.2338 12.5284 21.3403 12.5268 21.518 12.5894C22.1892 12.7342 22.7876 12.8293 23.3893 12.8926C26.0934 13.177 28.6952 13.8237 31.1477 15.0305C31.688 15.2964 32.2582 15.5013 32.8147 15.7343C32.8147 15.7343 32.7869 15.779 32.8102 15.8001C32.9162 15.8434 32.999 15.8656 33.0817 15.8877C33.0817 15.8877 33.0639 15.9007 33.0784 15.9374C33.1965 16.1044 33.3001 16.2347 33.451 16.4246C33.2345 16.4246 33.0995 16.4503 32.978 16.4205C32.0365 16.1895 31.1059 15.9047 30.1554 15.7231C29.3988 15.5785 28.6191 15.556 27.8496 15.4793C27.7418 15.4719 27.6339 15.4646 27.4564 15.3887C26.5224 15.1983 25.6609 15.0474 24.7929 14.964C24.1292 14.9002 23.4573 14.9218 22.7891 14.9055C22.7235 14.9075 22.658 14.9095 22.5237 14.8464C21.6274 14.704 20.8007 14.5743 19.9721 14.5601C18.0409 14.527 16.1082 14.5208 14.1775 14.5648C13.4829 14.5807 12.7922 14.7716 12.0997 14.8826C11.9945 14.902 11.8894 14.9214 11.6863 14.9014C9.75329 15.0827 7.91809 15.3025 6.08319 15.5253C5.79339 15.5605 5.50519 15.6094 5.21619 15.6519C5.20349 15.5929 5.19079 15.5339 5.17819 15.4749C5.26719 15.4289 5.35169 15.3674 5.44599 15.3391C7.52809 14.7147 9.59389 14.0236 11.7007 13.4982C13.0267 13.1675 14.4163 13.0969 15.7739 12.8871C16.2878 12.8077 16.7919 12.6649 17.3005 12.551C17.449 12.5365 17.5974 12.522 17.8475 12.549C19.0086 12.5703 20.068 12.5501 21.1274 12.53Z" fill="black"/>
<path d="M17.2402 12.5395C16.792 12.6649 16.2878 12.8077 15.7739 12.8871C14.4163 13.0969 13.0267 13.1675 11.7007 13.4982C9.5939 14.0236 7.5281 14.7147 5.446 15.3391C5.3517 15.3674 5.2672 15.4289 5.1782 15.4749C5.1908 15.5339 5.2035 15.5929 5.2162 15.6519C5.5052 15.6094 5.7934 15.5605 6.0832 15.5253C7.9181 15.3025 9.7533 15.0827 11.6328 14.8938C8.1063 15.25 4.5942 15.8508 1.2202 17.1241C0.882502 17.2515 0.504703 17.2722 0.262863 17.3195C1.4758 16.7832 2.7883 16.1468 4.143 15.6194C5.5411 15.075 6.9657 14.5863 8.4057 14.1658C9.8235 13.7518 11.2635 13.3905 12.7151 13.1225C14.1898 12.8502 15.6906 12.7202 17.2402 12.5395ZM4.7732 15.8662C4.7904 15.8516 4.8104 15.8392 4.824 15.8218C4.8371 15.805 4.8436 15.783 4.853 15.7633C4.6655 15.7633 4.4781 15.7633 4.2907 15.7633C4.2937 15.8087 4.2968 15.854 4.2998 15.8994C4.4305 15.8994 4.5612 15.8994 4.7732 15.8662Z" fill="black"/>
<path d="M32.7894 15.6973C32.2583 15.5013 31.688 15.2964 31.1477 15.0305C28.6952 13.8237 26.0934 13.177 23.3893 12.8926C22.7876 12.8293 22.1893 12.7342 21.5685 12.6074C25.5201 12.7437 29.2944 13.6474 32.7894 15.6973Z" fill="black"/>
<path d="M27.9003 15.498C28.6191 15.556 29.3988 15.5785 30.1554 15.7231C31.1059 15.9047 32.0365 16.1895 32.978 16.4205C33.0995 16.4503 33.2345 16.4246 33.451 16.4246C33.3001 16.2347 33.1966 16.1044 33.0835 15.9276C33.6835 16.2371 34.2931 16.5933 34.9027 16.9494C34.8794 16.9666 34.8562 16.9837 34.8329 17.0009C32.5389 16.5062 30.2449 16.0114 27.9003 15.498Z" fill="black"/>
<path d="M22.8451 14.9232C23.4574 14.9218 24.1292 14.9002 24.7929 14.964C25.6609 15.0474 26.5225 15.1983 27.4098 15.3608C25.9221 15.2479 24.4116 15.0945 22.8451 14.9232Z" fill="black"/>
<path d="M33.3066 16.4476C33.3009 16.4505 33.3122 16.4447 33.3066 16.4476V16.4476Z" fill="black"/>
</svg>
