<svg width="113" height="50" viewBox="0 0 113 50" fill="none" xmlns="http://www.w3.org/2000/svg">
<path d="M84.7373 34.5088C84.7376 36.2004 84.7376 37.8239 84.7376 39.4991C83.2944 39.4991 81.8735 39.4991 80.4115 39.4991C80.4115 35.7504 80.4115 32.0298 80.4115 28.2141C80.6534 28.2141 80.8943 28.2141 81.1352 28.2141C84.2161 28.2137 87.2971 28.2181 90.3781 28.2099C91.2131 28.2076 91.6081 27.8462 91.6493 27.107C91.6962 26.2671 91.2769 25.8447 90.3355 25.8428C87.2774 25.8369 84.2192 25.8454 81.161 25.8482C80.9171 25.8485 80.6732 25.8483 80.3988 25.8483C80.3988 24.34 80.3988 22.905 80.3988 21.4415C80.4734 21.4186 80.5564 21.3705 80.6393 21.3708C83.9253 21.3818 87.2114 21.394 90.4975 21.4161C90.9071 21.4189 91.3205 21.4496 91.7251 21.513C94.952 22.018 96.6198 24.4553 96.0542 27.7851C95.719 29.7583 94.6165 31.0997 92.8104 31.893C92.6042 31.9835 92.3954 32.068 92.1032 32.191C93.6288 34.6377 95.1308 37.0465 96.6908 39.5483C95.4661 39.5483 94.3024 39.4277 93.1747 39.5779C91.6674 39.7788 90.8239 39.2129 90.1602 37.8744C89.3302 36.2005 88.268 34.6434 87.3334 33.0201C87.1025 32.6191 86.8575 32.4317 86.3704 32.4571C84.8546 32.5362 84.6948 32.0886 84.735 34.0973C84.7373 34.2118 84.7364 34.3263 84.7373 34.5088Z" fill="black"/>
<path d="M67.2803 21.3881C67.8881 21.297 67.8505 21.6645 67.8503 22.0218C67.8479 25.8887 67.8492 29.7557 67.8504 33.6227C67.8505 33.8743 67.8564 34.1259 67.8641 34.3774C67.8813 34.9386 68.1687 35.201 68.7314 35.1994C70.2828 35.195 71.8344 35.1945 73.3858 35.2118C73.8798 35.2173 74.095 34.9732 74.1322 34.5192C74.149 34.3146 74.1424 34.1078 74.1418 33.902C74.1312 29.9664 74.12 26.0309 74.109 22.0953C74.1084 21.8726 74.1089 21.6499 74.1089 21.3927C75.6299 21.3927 77.0796 21.3927 78.565 21.3927C78.5781 21.5861 78.6006 21.7643 78.6005 21.9424C78.5984 26.1526 78.5989 30.3628 78.5841 34.5729C78.582 35.1657 78.5304 35.7618 78.4542 36.3502C78.187 38.4138 77.2549 39.4735 75.1884 39.5421C72.3005 39.6381 69.3999 39.5806 66.5141 39.4192C64.6696 39.3161 63.816 38.3587 63.4992 36.5181C63.3909 35.8894 63.3205 35.2456 63.3182 34.6084C63.3028 30.2391 63.3102 25.8698 63.3102 21.3882C64.5914 21.3882 65.9045 21.3882 67.2803 21.3881Z" fill="black"/>
<path d="M108.036 25.5769C108.036 24.1596 108.036 22.8109 108.036 21.413C109.508 21.413 110.955 21.413 112.454 21.413C112.469 21.6098 112.498 21.8067 112.498 22.0036C112.498 26.213 112.508 30.4226 112.484 34.6319C112.479 35.4279 112.396 36.2341 112.248 37.0163C111.988 38.3891 111.177 39.3572 109.748 39.44C107.226 39.5861 104.695 39.6101 102.168 39.6416C101.443 39.6506 100.709 39.5525 99.9928 39.4282C98.5023 39.1697 97.723 38.4193 97.4821 36.9299C97.3295 35.9864 97.2644 35.02 97.2569 34.063C97.2244 29.8996 97.2273 25.7359 97.2188 21.5723C97.2188 21.5289 97.2383 21.4855 97.2598 21.3954C98.7159 21.3954 100.183 21.3954 101.712 21.3954C101.712 21.6521 101.712 21.8746 101.712 22.0971C101.712 26.032 101.711 29.967 101.713 33.9019C101.713 35.1544 101.773 35.2114 103.02 35.211C104.388 35.2105 105.757 35.2136 107.126 35.207C107.933 35.2032 108.043 35.1026 108.044 34.2933C108.048 31.4107 108.04 28.5282 108.036 25.5769Z" fill="black"/>
<path d="M42.6098 23.3036C44.6888 20.0429 47.5961 18.2148 51.4034 17.903C53.8865 17.6996 56.2873 18.0484 58.4705 19.3257C59.2658 19.7909 59.9703 20.4121 60.7954 21.0204C59.6233 22.277 58.5554 23.4218 57.437 24.6207C55.7385 23.0149 53.7594 22.3254 51.4759 22.5458C50.2087 22.6681 49.094 23.1458 48.1353 23.9765C46.0825 25.755 45.4049 29.0881 46.5783 31.735C47.3185 33.4047 48.5321 34.5927 50.2986 35.1406C52.0075 35.6706 53.7222 35.4776 55.4891 35.0516C55.4891 36.6861 55.4891 38.2529 55.4891 39.8264C52.0839 41.1699 46.5155 39.5979 43.7981 36.5156C40.7486 33.0566 40.2479 27.6342 42.6098 23.3036Z" fill="black"/>
<path d="M73.0919 13.5476C73.2399 13.535 73.3878 13.5224 73.637 13.551C73.9649 13.6042 74.1918 13.6306 74.418 13.626C76.3973 13.5859 78.3765 13.5085 80.3558 13.5061C82.0157 13.504 83.6757 13.586 85.3354 13.6364C85.426 13.6392 85.515 13.6941 85.7902 13.788C85.4908 13.8527 85.3909 13.8876 85.2892 13.8942C83.8405 13.9894 82.3819 14.005 80.9449 14.1898C78.4322 14.513 75.9084 14.8244 73.4335 15.3503C69.9135 16.0984 66.5354 17.3289 63.2871 18.8936C62.8004 19.128 62.3335 19.3043 61.8123 19.0279C61.8123 19.0279 61.8366 19.0154 61.8245 18.977C61.7064 18.8237 61.6137 18.692 61.4926 18.5964C60.0828 17.4834 58.4786 16.7417 56.7756 16.23C56.128 16.0355 55.4256 16.0246 54.7482 15.9301C54.6833 15.9303 54.6185 15.9305 54.4893 15.8647C53.3039 15.4316 52.1673 15.7209 51.0376 15.7249C50.9952 15.725 50.9531 15.8203 50.9108 15.8713C50.8471 15.8908 50.7833 15.9104 50.6253 15.8949C49.8189 15.8128 49.1069 15.7658 48.3949 15.7188C48.3949 15.7188 48.4129 15.714 48.4055 15.6738C47.8824 14.8009 47.3132 14.0249 46.3384 13.6785C46.3384 13.6785 46.3592 13.6356 46.349 13.6092C45.7918 13.2019 45.2448 12.8211 44.6978 12.4403C44.6978 12.4403 44.7236 12.4085 44.7081 12.3774C43.6313 11.796 42.6221 11.0703 41.4971 10.734C39.5473 10.1511 37.5334 9.76979 35.5306 9.38719C34.7915 9.24598 34.0076 9.34003 33.2442 9.32679C33.1807 9.33029 33.1172 9.33379 32.9882 9.27453C32.7976 9.17316 32.6732 9.10266 32.5476 9.10059C29.2493 9.04616 25.9714 9.21512 22.7506 10.0097C22.5844 10.0507 22.3993 10.015 22.2231 10.015C22.321 9.80029 22.4265 9.70762 22.5482 9.6747C24.8447 9.05316 27.1443 8.44319 29.4407 7.82154C32.0237 7.12234 34.6728 6.97245 37.3247 6.91098C38.7995 6.87679 40.2782 6.97267 41.754 7.03518C44.5422 7.15328 47.233 7.76464 49.8572 8.69432C50.4478 8.90351 51.0354 9.12073 51.6244 9.33425C51.6244 9.33425 51.609 9.34614 51.6215 9.38487C52.3177 9.84867 53.0013 10.2738 53.685 10.6988C53.685 10.6988 53.6661 10.7347 53.6806 10.7547C53.7422 10.7893 53.7894 10.804 53.8365 10.8187C53.8365 10.8187 53.8167 10.8596 53.825 10.8891C54.0125 11.0293 54.1917 11.14 54.371 11.2507C54.371 11.2507 54.3523 11.27 54.3661 11.2966C54.4266 11.3397 54.4735 11.3562 54.5203 11.3727C54.5203 11.3727 54.4647 11.3888 54.4905 11.4288C55.4411 12.5723 56.7357 13.0007 58.0517 13.3356C58.8571 13.5405 59.6984 13.6424 60.5297 13.6969C61.7893 13.7795 63.0541 13.7806 64.3167 13.8163C65.0112 13.8081 65.7056 13.7999 66.5108 13.8317C68.6765 13.8349 70.7316 13.8011 72.7863 13.7525C72.8897 13.75 72.9901 13.6188 73.0919 13.5476Z" fill="black"/>
<path d="M38.3013 25.5847C37.366 25.5852 36.4973 25.6147 35.6317 25.5752C35.1125 25.5515 34.9769 25.7203 34.9801 26.237C35.0051 30.3343 35 34.4319 35.0028 38.5294C35.0035 39.5728 35.0013 39.5728 33.9534 39.5714C32.9262 39.57 31.8977 39.5366 30.8724 39.5794C30.2723 39.6044 30.0854 39.4119 30.0887 38.8045C30.1118 34.6385 30.1012 30.4722 30.1014 26.306C30.1014 26.1023 30.1014 25.8985 30.1014 25.5783C29.1123 25.5783 28.1641 25.5775 27.2158 25.5784C25.4406 25.5802 25.4395 25.5806 25.4332 23.7908C25.4303 22.9696 25.4327 22.1484 25.4327 21.256C25.7299 21.2399 25.9723 21.2154 26.2147 21.2153C30.4602 21.2139 34.7059 21.2284 38.9513 21.2028C39.6136 21.1988 39.8351 21.399 39.7987 22.0602C39.7485 22.9731 39.7375 23.8941 39.7996 24.8054C39.8451 25.4742 39.587 25.6635 38.985 25.5891C38.7826 25.5641 38.5746 25.5848 38.3013 25.5847Z" fill="black"/>
<path d="M52.8496 49.9974C52.6477 50 52.5016 50 52.1842 50C52.4308 49.8425 52.5291 49.7608 52.6414 49.7108C55.442 48.4647 57.0801 46.2535 57.2552 43.255C57.4597 39.7524 57.303 36.2285 57.303 32.653C55.2994 32.653 53.2797 32.653 51.2093 32.653C51.2093 31.2367 51.2093 29.8798 51.2093 28.4817C54.6039 28.4817 58.0135 28.4817 61.5039 28.4817C61.5039 29.1362 61.5042 29.7904 61.5039 30.4445C61.5024 33.6007 61.4462 36.758 61.5114 39.9128C61.6196 45.1473 58.348 49.3393 52.8496 49.9974Z" fill="black"/>
<path d="M15.2963 21.1944C17.7831 21.1955 20.2014 21.2086 22.6196 21.1883C23.1691 21.1837 23.4137 21.3317 23.362 21.9245C23.3145 22.4693 23.336 23.0228 23.3637 23.5706C23.3866 24.023 23.1972 24.1792 22.7621 24.1732C21.3252 24.1535 19.8876 24.1741 18.4511 24.1419C17.3489 24.1172 16.7031 24.2839 16.6416 25.5287C16.6342 25.6779 16.3346 25.9333 16.1678 25.9355C13.8184 25.9657 11.4685 25.9575 9.11871 25.9671C8.72752 25.9687 8.62975 25.7712 8.59803 25.4151C8.51848 24.5221 8.18643 24.1969 7.28942 24.1808C5.78418 24.1538 4.27764 24.1434 2.7728 24.1774C2.15925 24.1912 1.96071 23.9748 2.01378 23.3806C2.05839 22.8814 2.0586 22.3712 2.01102 21.8724C1.95785 21.3151 2.16843 21.1784 2.70309 21.1811C6.87792 21.2018 11.0529 21.1936 15.2963 21.1944Z" fill="black"/>
<path d="M52.3568 7.63364C50.3458 4.66784 51.7063 0.812046 54.9652 0.11459C57.2256 -0.369167 59.3101 0.707986 60.1492 2.79345C61.0074 4.92627 60.2525 7.58827 58.466 8.72951C56.5466 9.9556 54.1576 9.6115 52.567 7.87934C52.5052 7.81203 52.4476 7.74087 52.3568 7.63364Z" fill="black"/>
<path d="M51.0378 45.6067C51.0378 45.6067 50.996 45.6423 50.9143 45.6387C50.6197 45.7062 50.4055 45.7734 50.1944 45.8491C48.4485 46.4747 46.7233 47.1684 44.9509 47.7057C43.7233 48.0778 42.4372 48.2748 41.1658 48.4782C39.4718 48.7493 37.767 48.9537 36.0649 49.1705C35.9996 49.1788 35.9131 49.0184 35.8364 48.9367C36.424 48.7203 37.0115 48.504 37.6951 48.2689C39.3801 47.9033 40.7818 47.1444 42.1275 46.2635C42.1409 46.2547 42.1377 46.2205 42.1423 46.1981C42.1423 46.1981 42.1726 46.1611 42.2489 46.1627C42.9359 45.7405 43.5465 45.3167 44.1571 44.8929C44.1571 44.8929 44.1764 44.927 44.2135 44.9225C44.5985 44.6091 44.9466 44.3002 45.2946 43.9914C45.2946 43.9914 45.2914 43.9821 45.3375 43.9801C45.4345 43.9195 45.4855 43.8609 45.5365 43.8022C45.5365 43.8022 45.5415 43.8192 45.5804 43.8119C45.8295 43.5896 46.0398 43.3746 46.25 43.1596C46.25 43.1596 46.2484 43.1576 46.2923 43.1536C46.4005 43.0652 46.4649 42.9808 46.5292 42.8964C46.5292 42.8964 46.5261 42.8858 46.5732 42.8818C46.6631 42.8145 46.706 42.7512 46.7488 42.6879C46.7488 42.6879 46.7571 42.7039 46.7953 42.7012C46.9139 42.5797 46.9943 42.4609 47.0747 42.3422C47.0747 42.3422 47.0705 42.334 47.1169 42.3302C47.201 42.2618 47.2388 42.1972 47.2765 42.1326C47.2894 42.1552 47.3023 42.1778 47.3407 42.1681C47.4034 42.0632 47.4406 41.9905 47.4778 41.9178C47.4778 41.9178 47.481 41.9215 47.5282 41.9131C47.8859 41.8648 48.2094 41.7483 48.5043 41.7991C49.5246 41.9746 50.5166 42.3835 51.5814 42.1072C51.7313 42.107 51.8812 42.1069 52.1073 42.1691C52.9845 42.2151 53.7862 42.1749 54.586 42.1983C54.7992 42.2045 55.0067 42.4056 55.2168 42.5172C55.2168 42.5172 55.1984 42.4957 55.1543 42.5077C54.9933 42.6946 54.8763 42.8696 54.7594 43.0445C54.7594 43.0445 54.7465 43.0266 54.7106 43.0314C54.6003 43.1469 54.5257 43.2576 54.4512 43.3684C54.4512 43.3684 54.4353 43.408 54.3702 43.4162C54.1923 43.5356 54.0795 43.647 53.9666 43.7583C53.9666 43.7583 53.9567 43.7617 53.9128 43.7582C53.7214 43.8978 53.5738 44.0409 53.4262 44.1839C53.4262 44.1839 53.3914 44.1881 53.3686 44.1804C53.3157 44.2131 53.2857 44.2533 53.2557 44.2936C53.2557 44.2936 53.2541 44.2797 53.2106 44.2775C52.9186 44.4593 52.6701 44.6433 52.4216 44.8274C52.4216 44.8274 52.4195 44.8143 52.3736 44.817C51.8977 45.082 51.4678 45.3443 51.0378 45.6067Z" fill="black"/>
<path d="M30.6274 12.4338C30.7338 12.4322 30.8403 12.4306 31.018 12.4932C31.6892 12.638 32.2876 12.7331 32.8893 12.7964C35.5934 13.0808 38.1952 13.7275 40.6477 14.9343C41.188 15.2002 41.7582 15.4051 42.3147 15.6381C42.3147 15.6381 42.2869 15.6828 42.3102 15.7039C42.4162 15.7472 42.499 15.7694 42.5817 15.7915C42.5817 15.7915 42.5639 15.8045 42.5784 15.8412C42.6965 16.0082 42.8001 16.1385 42.951 16.3284C42.7345 16.3284 42.5995 16.3541 42.478 16.3243C41.5365 16.0933 40.6059 15.8085 39.6554 15.6269C38.8988 15.4823 38.1191 15.4598 37.3496 15.3831C37.2418 15.3757 37.1339 15.3684 36.9564 15.2925C36.0224 15.1021 35.1609 14.9512 34.2929 14.8678C33.6292 14.804 32.9573 14.8256 32.2891 14.8093C32.2235 14.8113 32.158 14.8133 32.0237 14.7502C31.1274 14.6078 30.3007 14.4781 29.4721 14.4639C27.5409 14.4308 25.6082 14.4246 23.6775 14.4686C22.9829 14.4845 22.2922 14.6754 21.5997 14.7864C21.4945 14.8058 21.3894 14.8252 21.1863 14.8052C19.2533 14.9865 17.4181 15.2063 15.5832 15.4291C15.2934 15.4643 15.0052 15.5132 14.7162 15.5557C14.7035 15.4967 14.6908 15.4377 14.6782 15.3787C14.7672 15.3327 14.8517 15.2712 14.946 15.2429C17.0281 14.6185 19.0939 13.9274 21.2007 13.402C22.5267 13.0713 23.9163 13.0007 25.2739 12.7909C25.7878 12.7115 26.2919 12.5687 26.8005 12.4548C26.949 12.4403 27.0974 12.4258 27.3475 12.4528C28.5086 12.4741 29.568 12.4539 30.6274 12.4338Z" fill="black"/>
<path d="M16.7876 30.7929C16.7876 32.32 16.7876 32.3222 15.3112 32.3241C13.2842 32.3266 11.257 32.3118 9.2302 32.3349C8.72071 32.3407 8.55477 32.1783 8.57634 31.665C8.6137 30.7759 8.59904 29.8834 8.57222 28.9933C8.55978 28.5805 8.69589 28.4293 9.11411 28.4272C11.4131 28.4157 13.712 28.3878 16.0108 28.3542C16.5687 28.3461 16.852 28.5315 16.7963 29.1497C16.7494 29.6708 16.7872 30.1995 16.7876 30.7929Z" fill="black"/>
<path d="M81.4344 8.99778C83.7535 9.43961 85.9703 10.0227 88.1101 10.8714C79.6045 9.04977 71.0355 8.78726 62.4094 9.65348C68.6927 8.2271 75.0077 7.80652 81.4344 8.99778Z" fill="black"/>
<path d="M0.685947 33.4197C0.600034 32.5884 0.549063 31.7767 0.550173 30.965C0.550307 30.8657 0.826815 30.6866 0.980074 30.6811C1.79925 30.652 2.62009 30.6746 3.44007 30.6618C3.79861 30.6562 3.91371 30.8152 3.91169 31.159C3.90098 32.9868 3.89542 34.8148 3.90938 36.6425C3.91285 37.097 3.72667 37.2667 3.29587 37.2313C3.13749 37.2183 2.97507 37.2138 2.81797 37.2335C2.31949 37.2958 2.1361 37.1141 2.15217 36.5857C2.18962 35.3544 2.16411 34.1211 2.12827 32.8495C1.93466 33.7617 1.21366 33.2907 0.685947 33.4197Z" fill="black"/>
<path d="M23.2464 32.588C23.2407 33.942 23.202 35.2446 23.2483 36.5442C23.2762 37.3297 22.7877 37.2021 22.311 37.2393C21.7632 37.2819 21.555 37.1161 21.5596 36.5256C21.5732 34.7926 21.5241 33.059 21.4968 31.3257C21.4902 30.9029 21.5961 30.6309 22.1115 30.6536C22.8386 30.6857 23.5695 30.6861 24.2963 30.6498C24.7948 30.6249 24.9333 30.8321 24.9035 31.2915C24.8754 31.7233 24.9078 32.1588 24.9004 32.5924C24.8938 32.9802 25.0401 33.4502 24.3431 33.4127C23.8117 33.384 23.2362 33.5107 23.3687 32.6561C23.3777 32.5982 23.3346 32.5321 23.3158 32.4699C23.2936 32.4917 23.2713 32.5135 23.2464 32.588Z" fill="black"/>
<path d="M18.2067 34.6423C18.2062 33.4819 18.2188 32.3897 18.1991 31.298C18.1908 30.8387 18.3377 30.6388 18.8251 30.6495C20.6993 30.6906 20.3274 30.4235 20.3497 32.1364C20.3688 33.5962 20.3457 35.0567 20.377 36.5162C20.3883 37.0438 20.2244 37.2519 19.6791 37.2378C17.9779 37.1939 18.211 37.4239 18.2048 35.8058C18.2034 35.4408 18.206 35.0758 18.2067 34.6423Z" fill="black"/>
<path d="M7.08629 33.2685C7.08781 34.4329 7.07709 35.5289 7.0968 36.6243C7.10475 37.0656 6.94062 37.24 6.49757 37.2297C4.86941 37.192 5.0641 37.439 5.0637 35.8312C5.06333 34.393 5.08334 32.9541 5.04162 31.517C5.02335 30.8878 5.16861 30.608 5.86381 30.6398C7.3132 30.7061 7.04971 30.4917 7.0838 31.8987C7.09431 32.3322 7.08598 32.7661 7.08629 33.2685Z" fill="black"/>
<path d="M92.5938 46.3872C92.4046 46.4128 92.2678 46.4217 92.1316 46.4152C92.0682 46.4122 92.0063 46.3793 91.8788 46.34C91.8788 45.3865 91.8788 44.4217 91.8788 43.259C91.387 44.0284 91.0049 44.6263 90.5381 45.3565C90.1286 44.6955 89.7933 44.1544 89.4581 43.6134C89.4116 43.6246 89.365 43.6358 89.3185 43.6471C89.3185 44.5602 89.3185 45.4733 89.3185 46.4124C89.0092 46.4124 88.7869 46.4124 88.5153 46.4124C88.5153 44.8823 88.5153 43.3608 88.5153 41.8061C88.9915 41.5898 89.3145 41.7644 89.5668 42.2534C89.8589 42.8196 90.2068 43.3568 90.5807 43.9922C90.9054 43.4286 91.2347 42.9407 91.4771 42.4126C91.7203 41.8828 92.0372 41.614 92.6465 41.8235C92.6465 43.3253 92.6465 44.8447 92.5938 46.3872Z" fill="black"/>
<path d="M51.5994 9.29603C51.0354 9.12073 50.4478 8.90351 49.8572 8.69432C47.233 7.76464 44.5422 7.15328 41.754 7.03518C40.2782 6.97267 38.7995 6.87679 37.3247 6.91098C34.6728 6.97245 32.0237 7.12234 29.4407 7.82154C27.1443 8.44319 24.8447 9.05316 22.5482 9.6747C22.4265 9.70762 22.321 9.80029 22.2231 10.015C22.3993 10.015 22.5844 10.0507 22.7506 10.0097C25.9714 9.21512 29.2493 9.04616 32.5476 9.10059C32.6732 9.10266 32.7976 9.17316 32.9425 9.25971C30.5757 9.41905 28.1724 9.39439 25.8071 9.68276C23.7268 9.93637 21.6891 10.5407 19.6323 10.989C19.3935 11.041 19.1532 11.0858 18.8552 11.0192C19.2164 10.8541 19.5738 10.68 19.9394 10.5252C27.2091 7.44675 34.758 6.09809 42.6401 6.89903C45.7362 7.21364 48.7722 7.80224 51.5994 9.29603ZM21.3357 10.1285C21.2899 10.1826 21.2441 10.2367 21.1983 10.2908C21.2801 10.2946 21.362 10.2983 21.4439 10.302C21.4322 10.2365 21.4204 10.1709 21.3357 10.1285ZM20.7529 10.4282C20.764 10.4089 20.7751 10.3895 20.7862 10.3702C20.768 10.3785 20.7498 10.3868 20.7529 10.4282Z" fill="black"/>
<path d="M61.8329 19.0692C62.3335 19.3043 62.8004 19.128 63.2871 18.8936C66.5354 17.3289 69.9135 16.0984 73.4335 15.3503C75.9084 14.8244 78.4322 14.513 80.9449 14.1898C82.3819 14.005 83.8405 13.9894 85.2892 13.8942C85.3909 13.8876 85.4908 13.8527 85.7902 13.788C85.515 13.6941 85.426 13.6392 85.3354 13.6364C83.6757 13.586 82.0157 13.504 80.3558 13.5061C78.3765 13.5085 76.3973 13.5859 74.418 13.626C74.1918 13.6306 73.9649 13.6042 73.6922 13.5604C78.8625 13.33 84.0797 13.0993 89.272 13.9042C89.3528 13.9167 89.433 13.9338 89.4945 13.8098C85.9843 14.0575 82.4626 14.198 78.9666 14.5774C73.3976 15.1818 68.0816 16.7575 63.0367 19.2175C62.6071 19.4269 62.2055 19.6257 61.8329 19.0692Z" fill="black"/>
<path d="M68.9086 44.2814C69.0801 44.136 69.2429 43.9885 69.4214 43.9659C69.7555 43.9236 70.0987 43.9537 70.5225 43.9537C70.5225 44.3563 70.5225 44.7372 70.5225 45.118C70.5225 45.4823 70.5225 45.8466 70.5225 46.1984C69.2469 46.7844 67.7374 46.5854 67.019 45.7524C66.3638 44.9928 66.3128 43.6038 66.9081 42.7381C67.5333 41.8291 68.9628 41.4891 70.3202 41.9244C70.3202 42.1881 70.3202 42.4498 70.3202 42.6504C69.7354 42.6163 69.1873 42.501 68.6642 42.5716C67.6353 42.7104 67.1284 43.555 67.3625 44.5862C67.5588 45.4512 68.5878 46.0577 69.456 45.7179C69.6726 45.6331 69.7276 45.1334 69.8114 44.9328C69.4994 44.4978 68.8794 45.0276 68.9086 44.2814Z" fill="black"/>
<path d="M3.90899 26.9574C3.91018 27.6651 3.89705 28.3057 3.91277 28.9456C3.92158 29.3044 3.77425 29.4302 3.42611 29.4235C2.62824 29.4082 1.82961 29.4038 1.03189 29.4218C0.653336 29.4304 0.475509 29.3019 0.513697 28.9094C0.52913 28.7508 0.535689 28.5868 0.51332 28.4299C0.436125 27.8886 0.698939 27.7416 1.18561 27.7966C1.42935 27.8241 1.67874 27.8014 2.05155 27.8014C2.05155 27.2507 2.08507 26.7588 2.04279 26.2735C1.99343 25.7069 2.12988 25.4307 2.7734 25.4561C4.16106 25.5109 3.8893 25.3855 3.90899 26.9574Z" fill="black"/>
<path d="M21.4821 27.3641C21.4815 27.1135 21.481 26.931 21.4802 26.7485C21.4742 25.3705 21.4736 25.3816 22.8223 25.4533C23.1939 25.4731 23.366 25.6007 23.354 25.9821C23.3405 26.4151 23.3698 26.85 23.3449 27.282C23.3187 27.7339 23.448 27.9351 23.952 27.9265C24.9365 27.9097 25.0276 28.0309 24.8749 29.0214C24.8517 29.1719 24.6198 29.3985 24.4767 29.4045C23.6139 29.4402 22.748 29.4402 21.8852 29.403C21.7467 29.3971 21.518 29.1541 21.5041 29.0045C21.4556 28.4843 21.4833 27.9569 21.4821 27.3641Z" fill="black"/>
<path d="M18.2113 29.0879C18.2054 28.0675 18.2179 27.1091 18.1947 26.1515C18.1832 25.6781 18.3013 25.4445 18.8398 25.4531C20.6559 25.4821 20.3068 25.3016 20.3496 26.9231C20.367 27.5842 20.3387 28.2466 20.3604 28.9075C20.3731 29.2946 20.2248 29.4433 19.8435 29.4233C19.4579 29.403 19.0678 29.4449 18.685 29.4067C18.5215 29.3904 18.3713 29.2398 18.2113 29.0879Z" fill="black"/>
<path d="M5.0524 28.578C5.05193 27.7115 5.06736 26.9104 5.04497 26.1103C5.03224 25.6556 5.16696 25.458 5.66237 25.4497C7.07695 25.4262 7.07843 25.4059 7.08641 26.8397C7.09035 27.5488 7.11176 28.2597 7.06632 28.9659C7.05593 29.1274 6.8155 29.3868 6.65823 29.4051C6.16619 29.4625 5.66329 29.4262 5.09286 29.4262C5.07756 29.1298 5.06501 28.8868 5.0524 28.578Z" fill="black"/>
<path d="M26.7402 12.4433C26.292 12.5687 25.7878 12.7115 25.2739 12.7909C23.9163 13.0007 22.5267 13.0713 21.2007 13.402C19.0939 13.9274 17.0281 14.6185 14.946 15.2429C14.8517 15.2712 14.7672 15.3327 14.6782 15.3787C14.6908 15.4377 14.7035 15.4967 14.7162 15.5557C15.0052 15.5132 15.2934 15.4643 15.5832 15.4291C17.4181 15.2063 19.2533 14.9865 21.1328 14.7976C17.6063 15.1538 14.0942 15.7546 10.7202 17.0279C10.3825 17.1553 10.0047 17.176 9.76286 17.2233C10.9758 16.687 12.2883 16.0506 13.643 15.5232C15.0411 14.9788 16.4657 14.4901 17.9057 14.0696C19.3235 13.6556 20.7635 13.2943 22.2151 13.0263C23.6898 12.754 25.1906 12.624 26.7402 12.4433ZM14.2732 15.77C14.2904 15.7554 14.3104 15.743 14.324 15.7256C14.3371 15.7088 14.3436 15.6868 14.353 15.6671C14.1655 15.6671 13.9781 15.6671 13.7907 15.6671C13.7937 15.7125 13.7968 15.7578 13.7998 15.8032C13.9305 15.8032 14.0612 15.8032 14.2732 15.77Z" fill="black"/>
<path d="M78.9054 44.983C78.6452 44.348 78.4037 43.766 78.1203 43.2052C77.8847 42.7389 77.5998 42.2977 77.3127 41.8041C77.8286 41.6087 78.212 41.6541 78.4835 42.1937C78.7359 42.6955 79.0402 43.171 79.3604 43.7253C79.6737 43.2155 79.9999 42.7775 80.2256 42.2924C80.4771 41.7518 80.8434 41.6288 81.4209 41.8047C80.6886 43.2707 79.261 44.476 79.811 46.4115C79.4485 46.4115 79.2123 46.4115 78.906 46.4115C78.906 45.9526 78.906 45.4988 78.9054 44.983Z" fill="black"/>
<path d="M35.7985 48.9187C35.9131 49.0184 35.9996 49.1788 36.0649 49.1705C37.767 48.9537 39.4718 48.7493 41.1658 48.4782C42.4372 48.2748 43.7233 48.0778 44.9509 47.7057C46.7233 47.1684 48.4485 46.4747 50.1944 45.8491C50.4055 45.7734 50.6198 45.7062 50.8869 45.6397C48.7472 46.8587 46.3866 47.634 43.9435 48.0951C41.3021 48.5937 38.6329 48.9468 35.9711 49.3307C35.5078 49.3975 35.0213 49.2916 34.5455 49.2906C34.4444 49.2904 34.3432 49.4 34.2339 49.4064C34.7428 49.2378 35.2517 49.0692 35.7985 48.9187Z" fill="black"/>
<path d="M33.2998 9.34298C34.0076 9.34004 34.7915 9.24598 35.5306 9.38719C37.5334 9.76979 39.5473 10.1511 41.4971 10.734C42.6221 11.0703 43.6312 11.796 44.6981 12.3954C41.2154 10.3267 37.3461 9.61861 33.2998 9.34298Z" fill="black"/>
<path d="M42.2894 15.6011C41.7583 15.4051 41.188 15.2002 40.6477 14.9343C38.1952 13.7275 35.5934 13.0808 32.8893 12.7964C32.2876 12.7331 31.6893 12.638 31.0685 12.5112C35.0201 12.6475 38.7944 13.5512 42.2894 15.6011Z" fill="black"/>
<path d="M21.6607 14.7985C22.2922 14.6754 22.9829 14.4845 23.6775 14.4686C25.6082 14.4246 27.5409 14.4308 29.4721 14.4639C30.3007 14.4781 31.1274 14.6078 31.9787 14.7292C28.9836 14.7613 25.9648 14.7462 22.946 14.7405C22.5379 14.7398 22.1297 14.7861 21.6607 14.7985Z" fill="black"/>
<path d="M64.2566 13.8008C63.0541 13.7806 61.7893 13.7795 60.5297 13.6969C59.6984 13.6424 58.8571 13.5405 58.0517 13.3356C56.7357 13.0007 55.441 12.5723 54.5181 11.4194C56.8023 13.3425 59.6423 13.4322 62.4222 13.713C63.0101 13.7723 63.6049 13.7629 64.2566 13.8008Z" fill="black"/>
<path d="M37.4003 15.4018C38.1191 15.4598 38.8988 15.4823 39.6554 15.6269C40.6059 15.8085 41.5365 16.0933 42.478 16.3243C42.5995 16.3541 42.7345 16.3284 42.951 16.3284C42.8001 16.1385 42.6966 16.0082 42.5835 15.8314C43.1835 16.1409 43.7931 16.4971 44.4027 16.8532C44.3794 16.8704 44.3562 16.8875 44.3329 16.9047C42.0389 16.41 39.7449 15.9152 37.4003 15.4018Z" fill="black"/>
<path d="M54.7959 15.9497C55.4255 16.0246 56.128 16.0355 56.7756 16.23C58.4786 16.7417 60.0828 17.4834 61.4926 18.5964C61.6137 18.692 61.7064 18.8237 61.8154 18.9873C59.7285 17.4764 57.4331 16.3866 54.7959 15.9497Z" fill="black"/>
<path d="M73.0292 13.5353C72.9901 13.6188 72.8897 13.75 72.7863 13.7525C70.7316 13.8011 68.6765 13.8349 66.5746 13.8419C68.674 13.7156 70.8203 13.6193 73.0292 13.5353Z" fill="black"/>
<path d="M42.0938 46.2046C42.1377 46.2205 42.1409 46.2547 42.1275 46.2635C40.7818 47.1444 39.3801 47.9033 37.7382 48.2514C39.1386 47.5721 40.592 46.8916 42.0938 46.2046Z" fill="black"/>
<path d="M32.3451 14.827C32.9574 14.8256 33.6292 14.804 34.2929 14.8678C35.1609 14.9512 36.0225 15.1021 36.9098 15.2646C35.4221 15.1517 33.9116 14.9983 32.3451 14.827Z" fill="black"/>
<path d="M50.9712 15.8834C50.9531 15.8203 50.9952 15.725 51.0376 15.7249C52.1673 15.7209 53.3039 15.4316 54.4448 15.8444C53.3203 15.8918 52.1759 15.8937 50.9712 15.8834Z" fill="black"/>
<path d="M51.5272 42.0906C50.5166 42.3835 49.5246 41.9746 48.5043 41.7991C48.2094 41.7483 47.8859 41.8648 47.5264 41.9116C47.6461 41.5141 47.908 41.45 48.3419 41.5422C49.3765 41.7622 50.4281 41.9019 51.5272 42.0906Z" fill="black"/>
<path d="M55.2553 42.4933C55.0067 42.4056 54.7992 42.2045 54.586 42.1983C53.7862 42.1749 52.9845 42.2151 52.1611 42.1862C53.2564 42.0905 54.3742 42.0401 55.5695 41.9861C55.4605 42.1773 55.3772 42.3234 55.2553 42.4933Z" fill="black"/>
<path d="M46.359 13.7184C47.3131 14.0249 47.8824 14.8009 48.4035 15.683C47.7326 15.0742 47.0561 14.4162 46.359 13.7184Z" fill="black"/>
<path d="M30.5726 12.418C29.568 12.4539 28.5086 12.4741 27.4028 12.4632C28.4102 12.4222 29.464 12.4122 30.5726 12.418Z" fill="black"/>
<path d="M53.6641 10.6591C53.0013 10.2738 52.3177 9.84867 51.6248 9.37566C52.2914 9.75831 52.9673 10.1889 53.6641 10.6591Z" fill="black"/>
<path d="M48.4102 15.7611C49.1069 15.7658 49.8189 15.8128 50.5749 15.8892C50.2253 15.9939 49.8163 16.0252 49.4417 16.1556C48.9805 16.3163 48.6704 16.1936 48.4102 15.7611Z" fill="black"/>
<path d="M44.1106 44.9048C43.5465 45.3167 42.9359 45.7405 42.2728 46.161C42.8349 45.7441 43.4495 45.3304 44.1106 44.9048Z" fill="black"/>
<path d="M44.7216 12.4779C45.2447 12.8211 45.7918 13.2019 46.3413 13.6318C45.811 13.2924 45.2782 12.904 44.7216 12.4779Z" fill="black"/>
<path d="M51.086 45.6027C51.4677 45.3443 51.8977 45.082 52.379 44.8206C51.9984 45.0807 51.5663 45.3397 51.086 45.6027Z" fill="black"/>
<path d="M45.2506 44.0057C44.9467 44.3002 44.5986 44.6091 44.2009 44.9075C44.503 44.6047 44.8548 44.3124 45.2506 44.0057Z" fill="black"/>
<path d="M52.4688 44.8217C52.6701 44.6433 52.9186 44.4593 53.2169 44.2805C53.0165 44.4625 52.7663 44.6393 52.4688 44.8217Z" fill="black"/>
<path d="M46.2074 43.1742C46.0398 43.3746 45.8295 43.5896 45.5717 43.8106C45.7376 43.6074 45.9512 43.3981 46.2074 43.1742Z" fill="black"/>
<path d="M54.352 11.2112C54.1917 11.14 54.0125 11.0293 53.8357 10.8682C54.0031 10.9358 54.1681 11.0537 54.352 11.2112Z" fill="black"/>
<path d="M54.8012 43.0293C54.8764 42.8696 54.9933 42.6946 55.1597 42.5208C55.0871 42.686 54.9651 42.85 54.8012 43.0293Z" fill="black"/>
<path d="M54.006 43.7487C54.0795 43.647 54.1924 43.5356 54.3494 43.4199C54.2774 43.5233 54.1613 43.6312 54.006 43.7487Z" fill="black"/>
<path d="M53.4676 44.1691C53.5738 44.0409 53.7213 43.8978 53.9162 43.7542C53.812 43.8873 53.6606 44.0207 53.4676 44.1691Z" fill="black"/>
<path d="M47.0352 42.3563C46.9944 42.4609 46.914 42.5797 46.7869 42.6984C46.8253 42.589 46.9104 42.4797 47.0352 42.3563Z" fill="black"/>
<path d="M54.4869 43.3532C54.5257 43.2576 54.6002 43.1469 54.7195 43.0379C54.6837 43.1391 54.6032 43.2385 54.4869 43.3532Z" fill="black"/>
<path d="M46.491 42.908C46.4649 42.9808 46.4006 43.0652 46.2934 43.1544C46.3179 43.0794 46.3853 42.9995 46.491 42.908Z" fill="black"/>
<path d="M46.7125 42.7003C46.706 42.7512 46.6631 42.8145 46.5782 42.8841C46.5829 42.831 46.6295 42.7718 46.7125 42.7003Z" fill="black"/>
<path d="M42.5598 15.7567C42.499 15.7694 42.4163 15.7472 42.3222 15.6805C42.3865 15.6646 42.4622 15.6932 42.5598 15.7567Z" fill="black"/>
<path d="M47.442 41.9313C47.4407 41.9905 47.4035 42.0632 47.3224 42.134C47.3211 42.0696 47.3636 42.0072 47.442 41.9313Z" fill="black"/>
<path d="M45.4977 43.8108C45.4856 43.8609 45.4346 43.9195 45.3418 43.9826C45.3529 43.9311 45.4059 43.8752 45.4977 43.8108Z" fill="black"/>
<path d="M47.2425 42.1476C47.2388 42.1972 47.201 42.2618 47.121 42.3323C47.1219 42.2797 47.1652 42.2212 47.2425 42.1476Z" fill="black"/>
<path d="M44.5375 17.1304C44.5349 17.1301 44.54 17.1308 44.5375 17.1304V17.1304Z" fill="black"/>
<path d="M53.2917 44.2876C53.2858 44.2534 53.3158 44.2131 53.3856 44.1763C53.3928 44.2138 53.3602 44.2476 53.2917 44.2876Z" fill="black"/>
<path d="M53.8208 10.7867C53.7894 10.804 53.7422 10.7893 53.6871 10.7355C53.7212 10.7158 53.7632 10.7353 53.8208 10.7867Z" fill="black"/>
<path d="M54.5051 11.34C54.4735 11.3562 54.4266 11.3397 54.3714 11.2842C54.4052 11.266 54.4476 11.2866 54.5051 11.34Z" fill="black"/>
<path d="M21.3722 10.1169C21.4205 10.1709 21.4322 10.2365 21.4439 10.302C21.362 10.2983 21.2801 10.2946 21.1983 10.2908C21.2441 10.2367 21.29 10.1826 21.3722 10.1169Z" fill="black"/>
<path d="M20.7422 10.4117C20.7498 10.3868 20.768 10.3785 20.7862 10.3702C20.7751 10.3895 20.764 10.4089 20.7422 10.4117Z" fill="black"/>
<path d="M14.2327 15.7865C14.0613 15.8032 13.9305 15.8032 13.7998 15.8032C13.7968 15.7578 13.7937 15.7125 13.7907 15.6671C13.9781 15.6671 14.1655 15.6671 14.353 15.6671C14.3436 15.6868 14.3371 15.7088 14.324 15.7256C14.3104 15.743 14.2905 15.7554 14.2327 15.7865Z" fill="black"/>
<path d="M43.3066 16.4476C43.3009 16.4505 43.3122 16.4447 43.3066 16.4476V16.4476Z" fill="black"/>
</svg>
